<?xml version="1.0" encoding="UTF-8" standalone="no"?>
<svg id="svg2" xmlns:rdf="http://www.w3.org/1999/02/22-rdf-syntax-ns#" xmlns="http://www.w3.org/2000/svg" height="165.08" width="165.08" version="1.0" xmlns:cc="http://web.resource.org/cc/" xmlns:dc="http://purl.org/dc/elements/1.1/">
 <metadata id="metadata55">
  <rdf:RDF>
   <cc:Work rdf:about="">
    <dc:format>image/svg+xml</dc:format>
    <dc:type rdf:resource="http://purl.org/dc/dcmitype/StillImage"/>
   </cc:Work>
  </rdf:RDF>
 </metadata>
 <g id="g4" fill-rule="evenodd" fill="#fff" transform="translate(-13.837 -13.837)">
  <path id="path6" d="m0 0h192.76v192.76h-192.76v-192.76z"/>
 </g>
 <g id="g8" fill="#7399C6" fill-rule="evenodd">
  <path id="path10" d="m0 165.08h165.08v-165.08h-165.08v165.08z"/>
 </g>
 <g id="g12" fill-rule="evenodd" fill="#fff" transform="translate(138.66 14.473)">
  <path id="path14" d="m5.721 23.222h-5.721v-22.549c0-0.0001 5.385-0.0001 5.385-0.0001v2.5244c0.673-1.5147 2.356-2.8613 4.544-3.0293 3.702-0.168 6.226 2.0195 6.226 6.7314v16.323h-5.89v-16.995c0-2.0199 0-3.7026-1.346-4.0395-0.505-0.1679-1.346 0-2.02 0.5039-0.841 0.8418-1.178 1.8516-1.178 3.5352v16.995z"/>
 </g>
 <g id="g16" fill-rule="evenodd" fill="#fff" transform="translate(33.151 14.641)">
  <path id="path18" d="m13.967 2.0195c-1.346-1.1777-3.029-2.0195-5.049-2.0195-2.0185 0-3.5332 0.8418-5.0478 2.0195-2.3565 2.0196-3.8702 5.7217-3.8702 9.7595 0 4.207 1.5137 7.741 3.8702 9.761 1.5146 1.178 3.0293 2.019 5.0478 2.019 2.02 0 3.703-0.841 5.049-2.019 2.524-2.02 3.87-5.554 3.87-9.761 0-4.0378-1.346-7.7399-3.87-9.7595zm-2.188 9.7595c0 4.207 0 7.573-0.673 9.256-0.504 0.841-1.01 1.346-2.188 1.346-1.0088 0-1.6816-0.505-2.0185-1.346-0.8418-1.683-0.8418-5.049-0.8418-9.256 0-4.0378 0-7.572 0.8418-9.2556 0.3369-0.8408 1.0097-1.3457 2.0185-1.3457 1.178 0 1.684 0.5049 2.188 1.3457 0.842 1.6836 0.673 5.2178 0.673 9.2556z"/>
 </g>
 <g id="g20" fill-rule="evenodd" fill="#fff" transform="translate(92.553 46.277)">
  <path id="path22" d="m13.294 0v6.0576h-1.177c-0.673-2.5234-1.683-4.7109-4.375-4.8798-1.683-0.168-3.198 0.8417-3.367 2.3564-0.168 1.5137 0.337 2.8603 3.367 4.543 3.87 2.1878 6.899 3.1968 6.899 7.7408 0 4.88-4.207 7.237-7.741 7.237h-6.732v-8.415h1.179c0.842 4.376 2.188 7.068 5.385 7.236 2.019 0 3.533-1.178 3.533-3.365 0-2.188-1.346-3.534-4.543-5.386-3.533-2.187-5.722-3.5332-5.722-6.5625 0-4.039 2.862-6.5625 7.405-6.5625h5.889z"/>
 </g>
 <g id="g24" fill-rule="evenodd" fill="#fff" transform="translate(87.169 14.473)">
  <path id="path26" d="m26.083 23.222v-16.323c0-4.7115-2.525-6.899-6.227-6.731-2.524 0.168-4.038 1.8516-4.712 3.1973-0.841-2.3555-2.692-3.3653-5.385-3.1973-2.186 0.168-3.87 1.5146-4.543 3.0293v-2.5244h-5.216v22.549h5.721v-16.995c0-1.684 0.168-2.6938 1.178-3.5356 0.674-0.5039 1.347-0.6718 1.851-0.5039 1.346 0.3369 1.346 2.0196 1.346 4.0391v16.995h5.722v-17.163c0-1.516 0.336-2.5258 1.178-3.3676 0.673-0.5039 1.346-0.6718 1.851-0.5039 1.346 0.3369 1.514 2.0196 1.514 4.0391v16.995h5.722z"/>
 </g>
 <g id="g28" fill-rule="evenodd" fill="#fff" transform="translate(54.859 10.434)">
  <path id="path30" d="m0 0h5.8896v27.261h-5.8896v-27.261z"/>
 </g>
 <g id="g32" fill-rule="evenodd" fill="#fff" transform="translate(64.451 10.434)">
  <path id="path34" d="m17.165 27.261v-27.261h-5.891v6.3945c-0.504-1.1777-1.6823-2.0195-3.3649-2.0195-4.207 0-7.5732 4.375-7.7412 11.106-0.1679 4.544 1.3467 12.117 7.2363 12.117 2.3555 0 3.7018-1.346 4.2068-2.525v2.188h5.554zm-6.9-20.698c1.178 1.6827 1.178 5.7206 1.178 8.9176 0 3.366 0.168 7.742-1.178 9.592-0.5053 0.674-1.0092 1.01-1.851 1.01-1.1777 0-1.8515-1.346-2.1875-3.533-0.1689-2.02-0.1689-4.544-0.1689-7.237 0-4.543 0.3369-9.5914 2.5244-9.5914 0.8418 0 1.1777 0.337 1.683 0.8418z"/>
 </g>
 <g id="g36" fill-rule="evenodd" fill="#fff" transform="translate(117.12 14.641)">
  <path id="path38" d="m13.631 1.1777c1.514 0.8418 2.524 2.1875 2.524 5.2168v16.66h-5.553v-2.524c-0.673 1.851-2.524 3.029-5.049 3.029-2.019 0-5.553-1.009-5.553-6.226 0-4.881 3.198-5.89 6.732-7.4043 3.197-1.3457 3.533-1.5156 3.533-2.8613v-3.7022c0-1.5136-0.84-2.1875-2.524-2.1875-0.673 0.168-1.851 0.5049-1.851 1.3457-0.169 1.0108 1.009 1.0108 1.178 2.5254 0.168 2.3555-1.683 3.1963-3.365 3.0283-1.179 0-2.525-0.6728-2.693-2.5234-0.168-3.0303 3.197-5.5537 7.909-5.5537 2.188 0 3.534 0.5049 4.712 1.1777zm-3.366 8.4141l-1.851 1.1782c-1.851 1.178-2.188 2.692-2.356 4.376-0.168 1.345-0.168 2.524 0 4.542 0.168 1.852 1.347 2.188 2.356 1.852 1.179-0.505 1.851-2.692 1.851-5.049v-6.8992z"/>
 </g>
 <g id="g40" fill-rule="evenodd" fill="#fff" transform="translate(33.823 46.277)">
  <path id="path42" d="m13.632 1.0098c1.514 1.0097 2.355 2.1875 2.355 5.2158v16.829h-5.384v-2.525c-0.6733 1.683-2.5239 2.861-5.0493 2.861-2.1875 0-5.5537-0.842-5.5537-6.058 0-4.88 3.1983-5.89 6.5645-7.4043 3.3652-1.5146 3.7015-1.6826 3.7015-2.8613v-3.7021c0-1.6827-0.8421-2.3555-2.5238-2.1875-0.6738 0-1.8516 0.3369-1.8516 1.1777-0.1679 1.1787 1.0098 1.1787 1.1778 2.6924 0.1689 2.1884-1.6826 3.0293-3.3653 3.0293-1.1777-0.168-2.5244-0.8409-2.6933-2.6924-0.168-2.8613 3.1982-5.3848 7.9101-5.3848 2.1871 0 3.5331 0.3369 4.7121 1.0098zm-3.366 8.414l-1.8509 1.1782c-1.8506 1.177-2.1875 2.692-2.3565 4.375-0.168 1.346-0.168 2.692 0 4.543 0 2.02 1.1787 2.356 2.1875 1.851 1.3467-0.505 2.0199-2.523 2.0199-5.048v-6.8992z"/>
 </g>
 <g id="g44" fill-rule="evenodd" fill="#fff" transform="translate(53.682 41.902)">
  <path id="path46" d="m34.497 11.106c0-4.7115-2.524-7.0679-6.227-6.731-1.85 0.168-3.365 1.0098-4.206 2.1875v-6.5625h-5.722v15.482c0 5.721-4.038 11.106-8.077 10.937-2.8617 0-3.5345-2.187-3.8704-4.543-0.5049-3.366-0.5049-7.236-0.169-11.443 0.3369-2.6927 1.0098-4.8802 3.0293-4.8802 1.5151 0 1.6831 1.0097 1.0101 1.6826-0.6742 0.8418-1.6829 1.6826-1.1781 3.5346 0.5039 2.019 3.7011 2.355 5.2171 0.841 1.178-1.346 1.01-3.5338 0.168-4.8805-1.01-1.6826-2.693-2.3555-5.2171-2.3555-3.1973 0-9.2549 2.8604-9.2549 11.948 0 9.76 6.2256 11.443 9.7598 11.443 4.0392 0 7.5722-3.534 8.5822-6.395v6.059h5.722v-16.997c0-1.683 0.336-2.6927 1.177-3.5345 0.674-0.504 1.515-0.6729 2.02-0.504 1.346 0.336 1.346 2.0186 1.346 4.0385v16.997h5.89v-16.324z"/>
 </g>
 <g id="g48" fill-rule="evenodd" fill="#fff" transform="translate(8.9189,9.9287)">
  <path id="path50" d="m20.361 0v9.5918h-1.177c-1.01-4.7119-3.198-8.2461-6.227-8.4141-2.019-0.168-3.1962 1.0098-4.207 2.6934-1.0088 2.0185-1.5146 6.2259-1.5146 11.275 0 4.711 0.1689 8.245 0.6738 10.769 0.3359 1.178 1.1777 3.029 3.3648 3.029 1.178 0 2.02-0.337 2.525-1.009 0.842-1.01 1.01-3.03 1.01-4.375v-4.544c0-1.683-0.505-2.693-1.347-3.198-0.673-0.337-1.683-0.337-2.188-0.504v-1.178h9.424v24.063h-1.178c-0.504-1.85-0.841-3.197-1.682-4.712-0.842-1.513-2.356-3.196-4.881-3.196-2.692-0.169-4.7119 1.515-4.7119 4.038 0 3.366 2.0199 4.207 5.7219 6.226 3.534 2.019 8.077 3.703 8.077 9.592 0 5.722-4.88 9.256-10.433 9.256h-8.9186v-11.611h1.1777c1.5147 8.75 5.2168 10.265 7.7409 10.265 3.198 0 4.711-2.02 4.711-4.88-0.168-3.703-2.691-5.049-6.225-6.9-5.0481-2.861-7.4046-4.208-7.4046-8.919 0.168-4.039 3.3662-6.563 6.8994-7.572-7.4043-0.842-9.5918-7.572-9.4238-14.81 0-7.2348 4.207-14.976 12.452-14.976h7.741z"/>
 </g>
</svg>
